<svg id="Layer_1" data-name="Layer 1" xmlns="http://www.w3.org/2000/svg" viewBox="0 0 908.43 504.58"><defs><style>.cls-1{fill:#0a1434;}.cls-2{fill:#ef4067;}</style></defs><path class="cls-1" d="M63.14,287.71h38.43a16.47,16.47,0,0,1,10.26,3.1,15.24,15.24,0,0,1,5.49,7.88L188,536.42q1.91,6.45,3.46,13.85t3,15.51c1.11-5.4,2.23-10.62,3.35-15.62a124.59,124.59,0,0,1,3.81-13.74L282,298.69a17.4,17.4,0,0,1,5.62-7.52,15.35,15.35,0,0,1,10.13-3.46h13.37a16,16,0,0,1,10.15,3.1,17.07,17.07,0,0,1,5.61,7.88l79.95,237.73a234.76,234.76,0,0,1,7.64,28.41q1.44-7.87,2.63-15a101,101,0,0,1,3.1-13.37l70.9-237.73a14.8,14.8,0,0,1,5.36-7.63,15.72,15.72,0,0,1,10.15-3.35h36L436,629.75H394.43L307.79,368.86A143,143,0,0,1,303,351.68c-.8,3.18-1.55,6.25-2.27,9.19s-1.48,5.6-2.27,8L211.36,629.75H169.83Z" transform="translate(-63.14 -287.71)"/><path class="cls-2" d="M208.69,758.41a4.36,4.36,0,0,1,3.15,1.41l8.25,9a66.58,66.58,0,0,1-23.18,17.27q-13.64,6.18-32.85,6.19a77.36,77.36,0,0,1-30.51-5.81,66.79,66.79,0,0,1-23.35-16.29,73.46,73.46,0,0,1-15-25.14,94.05,94.05,0,0,1-5.32-32.25,88,88,0,0,1,5.71-32.25,73.53,73.53,0,0,1,16-25.19A71.65,71.65,0,0,1,136.32,639a84.11,84.11,0,0,1,31.76-5.81q17.16,0,29.59,5.33A74.74,74.74,0,0,1,219.77,653l-6.84,9.66a7.66,7.66,0,0,1-1.74,1.8,4.77,4.77,0,0,1-2.82.7,5.55,5.55,0,0,1-3-1q-1.57-1-3.75-2.55t-5.1-3.26a45.35,45.35,0,0,0-6.95-3.26,58,58,0,0,0-9.34-2.55,64.8,64.8,0,0,0-12.27-1,59.07,59.07,0,0,0-22.86,4.3A51.3,51.3,0,0,0,127.25,668a55.63,55.63,0,0,0-11.68,19.33,73.88,73.88,0,0,0-4.18,25.52,75.22,75.22,0,0,0,4.18,26A57.32,57.32,0,0,0,127,758a48,48,0,0,0,17.1,12,54.7,54.7,0,0,0,21.29,4.13,86.69,86.69,0,0,0,12.48-.82,51.68,51.68,0,0,0,10.26-2.55,43.08,43.08,0,0,0,8.8-4.4,68.83,68.83,0,0,0,8.2-6.35A5.49,5.49,0,0,1,208.69,758.41Z" transform="translate(-63.14 -287.71)"/><path class="cls-2" d="M375.81,790.55H359.52a7,7,0,0,1-4.56-1.41,8.71,8.71,0,0,1-2.61-3.58L337.8,748H268l-14.55,37.58a8.43,8.43,0,0,1-2.61,3.47,6.94,6.94,0,0,1-4.55,1.52H230L292.2,634.94h21.39Zm-102-57.77h58.09l-24.43-63.31a118.43,118.43,0,0,1-4.67-14.66q-1.2,4.46-2.33,8.2c-.76,2.5-1.51,4.69-2.23,6.57Z" transform="translate(-63.14 -287.71)"/><path class="cls-2" d="M418.59,725.61v64.94h-21V634.94h44a96.62,96.62,0,0,1,25.52,3,49,49,0,0,1,17.75,8.64,34.5,34.5,0,0,1,10.37,13.63,45.63,45.63,0,0,1,3.37,17.86A44.74,44.74,0,0,1,496,693.47a40.83,40.83,0,0,1-7.55,12.87,45.15,45.15,0,0,1-12.05,9.72,59.61,59.61,0,0,1-16.12,6.08,22.37,22.37,0,0,1,6.94,6.62l45.39,61.79H494q-5.76,0-8.47-4.45l-40.4-55.6a11.83,11.83,0,0,0-4-3.75,14.49,14.49,0,0,0-6.51-1.14Zm0-15.3h22.05a53.78,53.78,0,0,0,16.23-2.23,33.22,33.22,0,0,0,11.73-6.3,26.08,26.08,0,0,0,7.11-9.72,31.6,31.6,0,0,0,2.39-12.49q0-13.89-9.17-21t-27.31-7.05h-23Z" transform="translate(-63.14 -287.71)"/><path class="cls-2" d="M858.31,287.71v54.78H619.8v165H812.89v52.71H619.8V729.7H858.31v54.76H552.2V287.71Z" transform="translate(-63.14 -287.71)"/><path class="cls-1" d="M885.23,746.46a44.35,44.35,0,0,1,12.29-30.88,42.89,42.89,0,0,1,13.71-9.34,43.21,43.21,0,0,1,34,0,45.23,45.23,0,0,1,13.87,9.34,42.79,42.79,0,0,1,9.19,13.88,46,46,0,0,1,0,34.16,42.21,42.21,0,0,1-23.06,22.87,45.13,45.13,0,0,1-34,0,40.22,40.22,0,0,1-13.71-9.18,43.45,43.45,0,0,1-12.29-30.85Zm73.49-458.75V486q0,15.63-.5,30.53t-1.58,30c-.69,10.05-1.55,20.36-2.58,30.87s-2.27,21.78-3.66,33.8H908.45q-2.07-18-3.64-33.8c-1-10.51-1.92-20.82-2.6-30.87s-1.21-20-1.56-30-.52-20.11-.52-30.53V287.71Z" transform="translate(-63.14 -287.71)"/></svg>